<svg width="50" height="50" viewBox="0 0 50 50" fill="none" xmlns="http://www.w3.org/2000/svg">
<path d="M20 1.5C15.0935 1.5 10.3879 3.4491 6.91852 6.91852C3.4491 10.3879 1.5 15.0935 1.5 20V30C1.5 34.9065 3.4491 39.6121 6.91852 43.0815C10.3879 46.5509 15.0935 48.5 20 48.5H30C32.4295 48.5 34.8351 48.0215 37.0796 47.0918C39.3242 46.1621 41.3636 44.7994 43.0815 43.0815C44.7994 41.3636 46.1621 39.3242 47.0918 37.0796C48.0215 34.8351 48.5 32.4295 48.5 30V20C48.5 17.5705 48.0215 15.1649 47.0918 12.9204C46.1621 10.6758 44.7994 8.63641 43.0815 6.91852C41.3636 5.20064 39.3242 3.83794 37.0796 2.90823C34.8351 1.97852 32.4295 1.5 30 1.5H20ZM20 0H30C35.3043 0 40.3914 2.10714 44.1421 5.85786C47.8929 9.60859 50 14.6957 50 20V30C50 35.3043 47.8929 40.3914 44.1421 44.1421C40.3914 47.8929 35.3043 50 30 50H20C14.6957 50 9.60859 47.8929 5.85786 44.1421C2.10714 40.3914 0 35.3043 0 30L0 20C0 14.6957 2.10714 9.60859 5.85786 5.85786C9.60859 2.10714 14.6957 0 20 0V0Z" fill="white"/>
<path d="M27.926 32.05C27.8021 32.05 27.6801 32.019 27.571 31.96C26.416 31.319 25.3084 30.5958 24.257 29.796C21.93 28.011 20.75 26.364 20.75 24.902C20.75 23.44 21.93 21.791 24.257 20.002C25.3083 19.2018 26.4159 18.4783 27.571 17.837C27.7457 17.7466 27.9489 17.7284 28.1368 17.7864C28.3248 17.8444 28.4824 17.9739 28.5758 18.147C28.6692 18.3202 28.6909 18.523 28.6361 18.7119C28.5813 18.9008 28.4545 19.0607 28.283 19.157C27.1938 19.7643 26.1489 20.4476 25.156 21.202C23.282 22.643 22.25 23.956 22.25 24.902C22.25 25.848 23.282 27.155 25.156 28.595C26.149 29.3493 27.1938 30.0327 28.283 30.64C28.4299 30.7193 28.5462 30.8454 28.6134 30.9983C28.6806 31.1512 28.6948 31.3222 28.6538 31.4841C28.6128 31.646 28.5189 31.7896 28.3871 31.8921C28.2552 31.9946 28.093 32.0502 27.926 32.05Z" fill="white"/>
</svg>
