<svg width="17" height="21" viewBox="0 0 17 21" fill="none" xmlns="http://www.w3.org/2000/svg">
<path d="M8.13471 0.00151219C9.18398 -0.0206046 10.2236 0.206201 11.1683 0.663347C12.113 1.12049 12.9359 1.79496 13.5697 2.6315C14.627 4.00743 15.2145 5.68654 15.2457 7.42151C15.2457 7.84651 15.2327 8.15451 15.2227 8.40151C15.1907 9.17351 15.1907 9.17351 15.9897 10.9315L16.0057 10.9695C16.2204 11.4613 16.3065 11.9996 16.256 12.5339C16.2054 13.0681 16.0198 13.5807 15.7167 14.0235C14.8226 15.1072 13.6064 15.8778 12.2447 16.2235C9.5687 17.0611 6.70071 17.0611 4.02472 16.2235C2.66294 15.8779 1.44674 15.1073 0.552706 14.0235C0.249747 13.5806 0.064359 13.068 0.0139796 12.5337C-0.0363997 11.9995 0.0498896 11.4612 0.264712 10.9695L0.280703 10.9315C1.0807 9.17451 1.08069 9.17451 1.04669 8.40151C1.03669 8.15451 1.02371 7.8465 1.02371 7.4205C1.05459 5.68565 1.64174 4.00656 2.6987 2.63051C3.33268 1.79401 4.15585 1.11964 5.10074 0.66266C6.04563 0.205685 7.08535 -0.0208797 8.13471 0.00151219V0.00151219ZM14.6147 11.5315C13.7447 9.61451 13.6797 9.4385 13.7247 8.3405C13.7347 8.1065 13.7457 7.81651 13.7457 7.42151C13.7457 5.48951 12.3737 1.50151 8.13471 1.50151C3.89571 1.50151 2.52371 5.48951 2.52371 7.42151C2.52371 7.81551 2.53572 8.1065 2.54572 8.3405C2.59072 9.4405 2.5257 9.61451 1.6557 11.5315C1.53274 11.7937 1.4806 12.0835 1.50446 12.3721C1.52832 12.6607 1.62736 12.9381 1.79172 13.1765C2.72172 14.5365 5.74771 15.3495 8.13471 15.3495C10.5217 15.3495 13.5477 14.5365 14.4787 13.1765C14.6424 12.9377 14.7408 12.6602 14.7639 12.3716C14.7871 12.083 14.7343 11.7934 14.6107 11.5315H14.6147Z" fill="#5474FD"/>
<path d="M14.4999 10C17.4999 15.5 9.49995 16 7.49995 15.5C0.499946 16 -0.000123501 10 2.49991 7C2.49991 4.51472 3.99993 1 7.99991 1C14.4999 1.5 15.4999 8 14.4999 10Z" fill="#5474FD"/>
<path d="M8.12871 20.5905C7.58322 20.5839 7.04544 20.4608 6.55135 20.2295C6.05726 19.9983 5.61826 19.6641 5.26372 19.2495C5.13112 19.1011 5.0629 18.9061 5.07406 18.7074C5.08522 18.5088 5.17485 18.3226 5.32323 18.19C5.47162 18.0574 5.66659 17.9892 5.86529 18.0003C6.06398 18.0115 6.2501 18.1011 6.38271 18.2495C6.59745 18.5058 6.86434 18.7133 7.16558 18.8583C7.46682 19.0033 7.79549 19.0825 8.12972 19.0905V19.0905C8.46489 19.0829 8.79459 19.0039 9.09685 18.8589C9.39912 18.7139 9.66702 18.5062 9.88271 18.2495C9.94819 18.1755 10.0277 18.1151 10.1166 18.0718C10.2055 18.0286 10.3021 18.0033 10.4007 17.9976C10.4994 17.9918 10.5983 18.0055 10.6916 18.0381C10.785 18.0707 10.8709 18.1214 10.9446 18.1873C11.0183 18.2532 11.0782 18.333 11.121 18.4221C11.1637 18.5113 11.1884 18.608 11.1936 18.7067C11.1988 18.8055 11.1845 18.9042 11.1514 18.9974C11.1183 19.0905 11.0671 19.1762 11.0007 19.2495C10.6451 19.6646 10.2049 19.999 9.70959 20.2303C9.21429 20.4615 8.67531 20.5844 8.12871 20.5905V20.5905Z" fill="#5474FD"/>
</svg>
