<svg width="17" height="21" viewBox="0 0 17 21" fill="none" xmlns="http://www.w3.org/2000/svg">
<path d="M8.38495 0.249986C9.43422 0.22787 10.4738 0.454675 11.4185 0.911821C12.3632 1.36897 13.1862 2.04344 13.8199 2.87998C14.8773 4.2559 15.4648 5.93501 15.4959 7.66998C15.4959 8.09498 15.483 8.40298 15.473 8.64998C15.441 9.42198 15.441 9.42198 16.24 11.18L16.256 11.218C16.4706 11.7098 16.5568 12.2481 16.5062 12.7823C16.4556 13.3166 16.2701 13.8292 15.967 14.272C15.0728 15.3557 13.8567 16.1263 12.4949 16.472C9.81895 17.3096 6.95095 17.3096 4.27497 16.472C2.91319 16.1264 1.69698 15.3558 0.802951 14.272C0.499991 13.8291 0.314603 13.3164 0.264224 12.7822C0.213844 12.248 0.300134 11.7097 0.514956 11.218L0.530947 11.18C1.33095 9.42298 1.33094 9.42298 1.29694 8.64998C1.28694 8.40298 1.27396 8.09498 1.27396 7.66898C1.30484 5.93412 1.89198 4.25503 2.94895 2.87898C3.58292 2.04249 4.40609 1.36811 5.35099 0.911134C6.29588 0.454159 7.3356 0.227594 8.38495 0.249986ZM14.865 11.78C13.995 9.86299 13.9299 9.68698 13.9749 8.58898C13.9849 8.35498 13.9959 8.06498 13.9959 7.66998C13.9959 5.73798 12.624 1.74999 8.38495 1.74999C4.14595 1.74999 2.77396 5.73798 2.77396 7.66998C2.77396 8.06398 2.78596 8.35498 2.79596 8.58898C2.84096 9.68898 2.77595 9.86299 1.90595 11.78C1.78298 12.0422 1.73084 12.332 1.7547 12.6206C1.77856 12.9092 1.87761 13.1865 2.04196 13.425C2.97196 14.785 5.99795 15.598 8.38495 15.598C10.772 15.598 13.7979 14.785 14.7289 13.425C14.8927 13.1862 14.991 12.9087 15.0142 12.6201C15.0373 12.3315 14.9845 12.0418 14.861 11.78H14.865Z" fill="#9397A0"/>
<path d="M8.37896 20.839C7.83346 20.8323 7.29569 20.7093 6.8016 20.478C6.30751 20.2468 5.86851 19.9126 5.51397 19.498C5.38136 19.3496 5.31314 19.1546 5.3243 18.9559C5.33546 18.7572 5.42509 18.5711 5.57348 18.4385C5.72187 18.3059 5.91684 18.2377 6.11553 18.2488C6.31423 18.26 6.50035 18.3496 6.63296 18.498C6.84769 18.7542 7.11459 18.9618 7.41582 19.1068C7.71706 19.2518 8.04574 19.331 8.37997 19.339C8.71513 19.3314 9.04483 19.2524 9.3471 19.1074C9.64937 18.9624 9.91726 18.7546 10.133 18.498C10.1984 18.4239 10.2779 18.3635 10.3668 18.3203C10.4557 18.2771 10.5523 18.2518 10.651 18.246C10.7497 18.2403 10.8485 18.254 10.9419 18.2866C11.0352 18.3191 11.1212 18.3698 11.1949 18.4357C11.2686 18.5016 11.3285 18.5815 11.3712 18.6706C11.4139 18.7598 11.4386 18.8565 11.4438 18.9552C11.4491 19.0539 11.4347 19.1527 11.4016 19.2459C11.3685 19.339 11.3173 19.4247 11.251 19.498C10.8953 19.9131 10.4551 20.2475 9.95983 20.4787C9.46454 20.71 8.92555 20.8328 8.37896 20.839Z" fill="#9397A0"/>
</svg>
