<svg width="50" height="50" viewBox="0 0 50 50" fill="none" xmlns="http://www.w3.org/2000/svg">
<path fill-rule="evenodd" clip-rule="evenodd" d="M25.47 16C19.083 16 18.004 16.932 18.004 24.429C18.004 32.822 17.847 35 19.443 35C21.039 35 23.643 31.316 25.47 31.316C27.297 31.316 29.9 35 31.5 35C33.1 35 32.939 32.822 32.939 24.429C32.936 16.932 31.857 16 25.47 16Z" fill="white"/>
<path d="M28.9 23.468H22.045C21.8461 23.468 21.6554 23.389 21.5147 23.2483C21.3741 23.1077 21.295 22.9169 21.295 22.718C21.295 22.5191 21.3741 22.3283 21.5147 22.1877C21.6554 22.047 21.8461 21.968 22.045 21.968H28.9C29.0989 21.968 29.2897 22.047 29.4304 22.1877C29.571 22.3283 29.65 22.5191 29.65 22.718C29.65 22.9169 29.571 23.1077 29.4304 23.2483C29.2897 23.389 29.0989 23.468 28.9 23.468Z" fill="#BFBFBF"/>
<path d="M20 1.5C15.0935 1.5 10.3879 3.4491 6.91852 6.91852C3.4491 10.3879 1.5 15.0935 1.5 20V30C1.5 34.9065 3.4491 39.6121 6.91852 43.0815C10.3879 46.5509 15.0935 48.5 20 48.5H30C32.4295 48.5 34.8351 48.0215 37.0796 47.0918C39.3242 46.1621 41.3636 44.7994 43.0815 43.0815C44.7994 41.3636 46.1621 39.3242 47.0918 37.0796C48.0215 34.8351 48.5 32.4295 48.5 30V20C48.5 17.5705 48.0215 15.1649 47.0918 12.9204C46.1621 10.6758 44.7994 8.63641 43.0815 6.91852C41.3636 5.20064 39.3242 3.83794 37.0796 2.90823C34.8351 1.97852 32.4295 1.5 30 1.5H20ZM20 0H30C35.3043 0 40.3914 2.10714 44.1421 5.85786C47.8929 9.60859 50 14.6957 50 20V30C50 35.3043 47.8929 40.3914 44.1421 44.1421C40.3914 47.8929 35.3043 50 30 50H20C14.6957 50 9.60859 47.8929 5.85786 44.1421C2.10714 40.3914 0 35.3043 0 30L0 20C0 14.6957 2.10714 9.60859 5.85786 5.85786C9.60859 2.10714 14.6957 0 20 0V0Z" fill="white"/>
</svg>
