<svg width="17" height="21" viewBox="0 0 17 21" fill="none" xmlns="http://www.w3.org/2000/svg">
<g filter="url(#filter0_i_230_11)">
<path d="M8.47 0.25C11.828 0.25 13.888 0.513003 15.152 1.897C16.435 3.302 16.686 5.723 16.686 9.429C16.686 10.1623 16.686 10.85 16.686 11.492C16.696 17.35 16.7 19.323 15.768 20.257C15.6004 20.4213 15.4011 20.5498 15.1823 20.6345C14.9634 20.7193 14.7295 20.7586 14.495 20.75C13.448 20.75 12.352 19.813 11.195 18.822C10.279 18.04 9.13998 17.066 8.47198 17.066C7.80398 17.066 6.66499 18.04 5.74899 18.822C4.58799 19.814 3.492 20.75 2.449 20.75C2.21446 20.7586 1.98061 20.7193 1.76175 20.6345C1.54289 20.5498 1.34358 20.4213 1.17599 20.257C0.243995 19.323 0.247995 17.35 0.257995 11.493C0.257995 10.851 0.257995 10.163 0.257995 9.429C0.257995 5.723 0.508992 3.303 1.79199 1.897C3.05199 0.513003 5.112 0.25 8.47 0.25ZM14.497 19.25C14.656 19.25 14.69 19.216 14.709 19.197C14.843 19.062 15.022 18.619 15.109 17.272C15.194 15.988 15.191 14.103 15.186 11.495C15.186 10.8523 15.186 10.1637 15.186 9.429C15.186 6.176 14.995 3.95 14.044 2.909C13.155 1.935 11.399 1.75 8.47 1.75C5.541 1.75 3.785 1.935 2.896 2.909C1.945 3.951 1.754 6.176 1.754 9.429C1.754 10.1623 1.754 10.851 1.754 11.495C1.754 14.103 1.74599 15.988 1.83099 17.272C1.91999 18.62 2.09899 19.063 2.23099 19.197C2.24899 19.215 2.28399 19.25 2.44299 19.25C2.93699 19.25 3.99801 18.343 4.77301 17.682C5.99001 16.642 7.24899 15.566 8.47299 15.566C9.69699 15.566 10.953 16.641 12.173 17.682C12.942 18.343 14 19.25 14.5 19.25H14.497Z" fill="#9397A0"/>
<path d="M8.47 0.25C11.828 0.25 13.888 0.513003 15.152 1.897C16.435 3.302 16.686 5.723 16.686 9.429C16.686 10.1623 16.686 10.85 16.686 11.492C16.696 17.35 16.7 19.323 15.768 20.257C15.6004 20.4213 15.4011 20.5498 15.1823 20.6345C14.9634 20.7193 14.7295 20.7586 14.495 20.75C13.448 20.75 12.352 19.813 11.195 18.822C10.279 18.04 9.13998 17.066 8.47198 17.066C7.80398 17.066 6.66499 18.04 5.74899 18.822C4.58799 19.814 3.492 20.75 2.449 20.75C2.21446 20.7586 1.98061 20.7193 1.76175 20.6345C1.54289 20.5498 1.34358 20.4213 1.17599 20.257C0.243995 19.323 0.247995 17.35 0.257995 11.493C0.257995 10.851 0.257995 10.163 0.257995 9.429C0.257995 5.723 0.508992 3.303 1.79199 1.897C3.05199 0.513003 5.112 0.25 8.47 0.25ZM14.497 19.25C14.656 19.25 14.69 19.216 14.709 19.197C14.843 19.062 15.022 18.619 15.109 17.272C15.194 15.988 15.191 14.103 15.186 11.495C15.186 10.8523 15.186 10.1637 15.186 9.429C15.186 6.176 14.995 3.95 14.044 2.909C13.155 1.935 11.399 1.75 8.47 1.75C5.541 1.75 3.785 1.935 2.896 2.909C1.945 3.951 1.754 6.176 1.754 9.429C1.754 10.1623 1.754 10.851 1.754 11.495C1.754 14.103 1.74599 15.988 1.83099 17.272C1.91999 18.62 2.09899 19.063 2.23099 19.197C2.24899 19.215 2.28399 19.25 2.44299 19.25C2.93699 19.25 3.99801 18.343 4.77301 17.682C5.99001 16.642 7.24899 15.566 8.47299 15.566C9.69699 15.566 10.953 16.641 12.173 17.682C12.942 18.343 14 19.25 14.5 19.25H14.497Z" fill="#5474FD"/>
<rect x="3" y="1" width="11" height="5" fill="#5474FD"/>
<rect x="3" y="1" width="11" height="14" fill="#5474FD"/>
<path d="M11.9 8.46802H5.04501C4.8461 8.46802 4.65533 8.389 4.51468 8.24835C4.37403 8.1077 4.29501 7.91693 4.29501 7.71802C4.29501 7.51911 4.37403 7.32834 4.51468 7.18768C4.65533 7.04703 4.8461 6.96802 5.04501 6.96802H11.9C12.0989 6.96802 12.2897 7.04703 12.4303 7.18768C12.571 7.32834 12.65 7.51911 12.65 7.71802C12.65 7.91693 12.571 8.1077 12.4303 8.24835C12.2897 8.389 12.0989 8.46802 11.9 8.46802V8.46802Z" fill="#9397A0"/>
<path d="M11.9 8.46802H5.04501C4.8461 8.46802 4.65533 8.389 4.51468 8.24835C4.37403 8.1077 4.29501 7.91693 4.29501 7.71802C4.29501 7.51911 4.37403 7.32834 4.51468 7.18768C4.65533 7.04703 4.8461 6.96802 5.04501 6.96802H11.9C12.0989 6.96802 12.2897 7.04703 12.4303 7.18768C12.571 7.32834 12.65 7.51911 12.65 7.71802C12.65 7.91693 12.571 8.1077 12.4303 8.24835C12.2897 8.389 12.0989 8.46802 11.9 8.46802V8.46802Z" fill="white"/>
<rect x="1" y="3" width="3" height="17" fill="#5474FD"/>
<rect x="2" y="13" width="13" height="3" fill="#5474FD"/>
<rect x="13" y="4" width="3" height="16" fill="#5474FD"/>
<path d="M14 2L15.7321 4.25H12.2679L14 2Z" fill="#5474FD"/>
<path d="M16 16.5C16 17.3284 14.1569 18.5 12.5 18.5C10.8431 18.5 10 17.3284 10 16.5C10 15.6716 11.3431 15 13 15C14.6569 15 16 15.6716 16 16.5Z" fill="#5474FD"/>
<path d="M6.5 17C6.5 17.8284 5.38071 18.5 4 18.5C2.61929 18.5 1.5 17.8284 1.5 17C1.5 16.1716 2.61929 15.5 4 15.5C5.38071 15.5 8.5 15 6.5 17Z" fill="#5474FD"/>
</g>
<defs>
<filter id="filter0_i_230_11" x="0.256104" y="0.25" width="16.4318" height="24.5012" filterUnits="userSpaceOnUse" color-interpolation-filters="sRGB">
<feFlood flood-opacity="0" result="BackgroundImageFix"/>
<feBlend mode="normal" in="SourceGraphic" in2="BackgroundImageFix" result="shape"/>
<feColorMatrix in="SourceAlpha" type="matrix" values="0 0 0 0 0 0 0 0 0 0 0 0 0 0 0 0 0 0 127 0" result="hardAlpha"/>
<feOffset dy="4"/>
<feGaussianBlur stdDeviation="2"/>
<feComposite in2="hardAlpha" operator="arithmetic" k2="-1" k3="1"/>
<feColorMatrix type="matrix" values="0 0 0 0 0 0 0 0 0 0 0 0 0 0 0 0 0 0 0.25 0"/>
<feBlend mode="normal" in2="shape" result="effect1_innerShadow_230_11"/>
</filter>
</defs>
</svg>
