<svg width="20" height="20" viewBox="0 0 20 20" fill="none" xmlns="http://www.w3.org/2000/svg">
<path d="M0.75 11.71C0.75 8.8659 0.918367 7.7588 1.37079 6.96963C1.59645 6.576 1.91557 6.22411 2.42084 5.75811C2.63914 5.55677 2.8822 5.34295 3.16134 5.09738C3.20575 5.05831 3.25107 5.01844 3.29735 4.97769C3.62666 4.68772 3.99712 4.35957 4.40971 3.97776C4.67412 3.7643 4.94549 3.5333 5.22626 3.29431C5.77276 2.82911 6.35486 2.33361 6.99049 1.87813C7.96326 1.18106 8.84299 0.75 9.55801 0.75C10.2759 0.75 11.1678 1.18107 12.154 1.87712C12.816 2.34436 13.4296 2.86086 14.0003 3.3412C14.2651 3.56408 14.5206 3.77917 14.7675 3.97795C15.1799 4.35994 15.5502 4.68828 15.8793 4.97841C15.9257 5.01929 15.9711 5.05927 16.0156 5.09846C16.2946 5.34416 16.5375 5.55811 16.7557 5.75955C17.261 6.22596 17.58 6.57806 17.8056 6.97176C18.2579 7.76098 18.426 8.86741 18.426 11.71C18.426 13.7661 18.3029 15.2421 18.0248 16.3123C17.7518 17.3628 17.3449 17.9649 16.8058 18.3518C16.2427 18.756 15.439 18.9967 14.2285 19.1215C13.0193 19.2461 11.511 19.247 9.59 19.247C7.66902 19.247 6.1604 19.2461 4.9508 19.1215C3.74 18.9967 2.93561 18.756 2.37202 18.3517C1.83238 17.9646 1.42503 17.3625 1.15173 16.3121C0.873308 15.242 0.75 13.766 0.75 11.71Z" stroke="#9397A0" stroke-width="1.5"/>
<path d="M12.894 14.882H7.07901C6.8801 14.882 6.68933 14.803 6.54868 14.6624C6.40802 14.5217 6.32901 14.3309 6.32901 14.132C6.32901 13.9331 6.40802 13.7424 6.54868 13.6017C6.68933 13.461 6.8801 13.382 7.07901 13.382H12.894C13.0929 13.382 13.2837 13.461 13.4243 13.6017C13.565 13.7424 13.644 13.9331 13.644 14.132C13.644 14.3309 13.565 14.5217 13.4243 14.6624C13.2837 14.803 13.0929 14.882 12.894 14.882V14.882Z" fill="#9397A0"/>
</svg>
