<svg width="20" height="20" viewBox="0 0 20 20" fill="none" xmlns="http://www.w3.org/2000/svg">
<path fill-rule="evenodd" clip-rule="evenodd" d="M0 11.71C0 6.07899 0.614006 6.47199 3.91901 3.40999C5.36501 2.24599 7.61901 0 9.55801 0C11.497 0 13.795 2.23499 15.258 3.40999C18.563 6.47499 19.176 6.08199 19.176 11.71C19.176 19.997 17.217 19.997 9.59 19.997C1.963 19.997 0 19.997 0 11.71Z" fill="#5474FD"/>
<path d="M12.894 14.882H7.07901C6.8801 14.882 6.68933 14.803 6.54868 14.6624C6.40802 14.5217 6.32901 14.3309 6.32901 14.132C6.32901 13.9331 6.40802 13.7424 6.54868 13.6017C6.68933 13.461 6.8801 13.382 7.07901 13.382H12.894C13.0929 13.382 13.2837 13.461 13.4243 13.6017C13.565 13.7424 13.644 13.9331 13.644 14.132C13.644 14.3309 13.565 14.5217 13.4243 14.6624C13.2837 14.803 13.0929 14.882 12.894 14.882V14.882Z" fill="white"/>
</svg>
