<svg width="47" height="49" viewBox="0 0 47 49" fill="none" xmlns="http://www.w3.org/2000/svg">
<path d="M31 0H16C7.16344 0 0 7.16344 0 16V33C0 41.8366 7.16344 49 16 49H31C39.8366 49 47 41.8366 47 33V16C47 7.16344 39.8366 0 31 0Z" fill="#5474FD"/>
<path d="M22.561 14.25C24.4025 14.25 26.2027 14.7961 27.7339 15.8192C29.2651 16.8423 30.4585 18.2965 31.1632 19.9978C31.868 21.6992 32.0524 23.5713 31.6931 25.3775C31.3338 27.1836 30.447 28.8427 29.1449 30.1449C27.8427 31.447 26.1836 32.3338 24.3775 32.6931C22.5713 33.0524 20.6992 32.868 18.9978 32.1632C17.2965 31.4585 15.8423 30.2651 14.8192 28.7339C13.7961 27.2027 13.25 25.4025 13.25 23.561C13.2529 21.0925 14.2348 18.7259 15.9803 16.9803C17.7259 15.2348 20.0925 14.2529 22.561 14.25ZM22.561 31.372C24.1059 31.372 25.616 30.9139 26.9006 30.0556C28.1851 29.1973 29.1862 27.9774 29.7774 26.5501C30.3686 25.1229 30.5233 23.5523 30.2219 22.0371C29.9205 20.522 29.1766 19.1302 28.0842 18.0378C26.9918 16.9454 25.6 16.2015 24.0849 15.9001C22.5697 15.5987 20.9991 15.7534 19.5719 16.3446C18.1446 16.9358 16.9247 17.9369 16.0664 19.2214C15.2081 20.5059 14.75 22.0161 14.75 23.561C14.7524 25.6319 15.5761 27.6172 17.0404 29.0816C18.5048 30.5459 20.4901 31.3696 22.561 31.372Z" fill="white"/>
<path d="M31.186 30.024C31.6134 30.0242 32.0312 30.1511 32.3864 30.3887C32.7417 30.6264 33.0185 30.964 33.1819 31.3589C33.3453 31.7539 33.3879 32.1884 33.3043 32.6076C33.2207 33.0267 33.0147 33.4117 32.7124 33.7138C32.41 34.0158 32.0249 34.2215 31.6056 34.3047C31.1864 34.3879 30.7519 34.3449 30.3571 34.1811C29.9623 34.0174 29.6249 33.7402 29.3877 33.3848C29.1504 33.0293 29.0238 32.6114 29.024 32.184C29.0245 31.6109 29.2526 31.0615 29.658 30.6565C30.0634 30.2515 30.613 30.024 31.186 30.024ZM31.186 32.846C31.3167 32.8458 31.4443 32.8069 31.5529 32.7342C31.6614 32.6615 31.746 32.5582 31.7959 32.4375C31.8458 32.3167 31.8588 32.1839 31.8333 32.0558C31.8077 31.9277 31.7448 31.81 31.6524 31.7176C31.56 31.6252 31.4423 31.5623 31.3142 31.5367C31.1861 31.5112 31.0533 31.5242 30.9325 31.5741C30.8118 31.624 30.7085 31.7086 30.6358 31.8171C30.5631 31.9257 30.5242 32.0533 30.524 32.184C30.524 32.3596 30.5938 32.528 30.7179 32.6521C30.8421 32.7762 31.0104 32.846 31.186 32.846Z" fill="white"/>
</svg>
