<svg width="37" height="37" viewBox="0 0 37 37" fill="none" xmlns="http://www.w3.org/2000/svg">
<path d="M25 0H12C5.37258 0 0 5.37258 0 12V25C0 31.6274 5.37258 37 12 37H25C31.6274 37 37 31.6274 37 25V12C37 5.37258 31.6274 0 25 0Z" fill="#EFF5F4"/>
<path d="M24.69 10.25C25.0618 10.228 25.4335 10.2966 25.773 10.45C25.9053 10.52 26.0135 10.6279 26.084 10.76C26.269 11.107 26.417 11.71 26.117 13.551C25.3778 17.5783 24.1315 21.4958 22.408 25.21C22.281 25.5078 22.0747 25.7652 21.8117 25.954C21.5486 26.1428 21.2388 26.2559 20.916 26.281C19.847 26.281 18.975 25.058 18.089 22.315C17.698 21.104 17.406 19.908 17.26 19.268C16.637 19.126 15.49 18.847 14.315 18.468C11.675 17.627 10.426 16.81 10.267 15.819C10.193 15.362 10.317 14.696 11.322 14.119C13.811 12.686 21.815 10.25 24.69 10.25ZM24.79 11.75H24.69C22.529 11.951 20.3973 12.3938 18.335 13.07C16.1767 13.6513 14.0794 14.4389 12.072 15.422C11.9682 15.4785 11.8718 15.5477 11.785 15.628C11.931 15.804 12.545 16.351 14.914 17.091C16.494 17.585 18.026 17.904 18.042 17.907C18.1852 17.9367 18.3166 18.0076 18.42 18.111C18.5234 18.2144 18.5943 18.3458 18.624 18.489C18.624 18.504 18.947 20.037 19.441 21.618C20.181 23.987 20.728 24.603 20.904 24.749C20.9821 24.6622 21.0493 24.5662 21.104 24.463C22.202 22.1961 23.069 19.8245 23.692 17.384C24.104 15.907 24.418 14.558 24.603 13.484C24.7179 12.9133 24.7791 12.3331 24.786 11.751L24.79 11.75Z" fill="#5474FD"/>
<path d="M17.89 19.392C17.7416 19.3921 17.5964 19.3481 17.473 19.2656C17.3496 19.1832 17.2534 19.0659 17.1966 18.9287C17.1399 18.7916 17.1251 18.6407 17.1542 18.4951C17.1833 18.3495 17.2549 18.2158 17.36 18.111L24.892 10.585C24.9612 10.5134 25.044 10.4563 25.1355 10.417C25.2271 10.3778 25.3255 10.3571 25.4251 10.3563C25.5247 10.3555 25.6234 10.3745 25.7156 10.4123C25.8077 10.45 25.8914 10.5058 25.9618 10.5762C26.0322 10.6467 26.0879 10.7304 26.1255 10.8226C26.1632 10.9148 26.1821 11.0136 26.1812 11.1132C26.1803 11.2128 26.1596 11.3112 26.1202 11.4026C26.0809 11.4941 26.0237 11.5769 25.952 11.646L18.42 19.17C18.3507 19.2401 18.2681 19.2958 18.1772 19.3339C18.0862 19.372 17.9886 19.3918 17.89 19.392Z" fill="#5474FD"/>
</svg>
