<svg width="70" height="70" viewBox="0 0 70 70" fill="none" xmlns="http://www.w3.org/2000/svg">
<path d="M50 0H20C8.9543 0 0 8.9543 0 20V50C0 61.0457 8.9543 70 20 70H50C61.0457 70 70 61.0457 70 50V20C70 8.9543 61.0457 0 50 0Z" fill="url(#pattern0)"/>
<path d="M35.15 44.056C31.764 44.056 29.636 43.438 28.25 42.056C26.864 40.674 26.25 38.543 26.25 35.156C26.25 31.769 26.868 29.642 28.25 28.256C29.632 26.87 31.763 26.256 35.15 26.256C38.537 26.256 40.664 26.874 42.05 28.256C43.436 29.638 44.05 31.769 44.05 35.156C44.05 38.543 43.432 40.67 42.05 42.056C40.668 43.442 38.539 44.056 35.15 44.056ZM35.15 27.75C32.193 27.75 30.393 28.232 29.311 29.314C28.229 30.396 27.747 32.196 27.747 35.153C27.747 38.11 28.229 39.91 29.311 40.992C30.393 42.074 32.193 42.556 35.15 42.556C38.107 42.556 39.907 42.074 40.989 40.992C42.071 39.91 42.553 38.11 42.553 35.153C42.553 32.196 42.071 30.396 40.989 29.314C39.907 28.232 38.109 27.75 35.15 27.75Z" fill="white"/>
<path d="M33.845 31.333C34.9016 31.5576 35.8969 32.009 36.762 32.656C38.914 34.091 38.914 34.77 38.914 35.025C38.914 35.28 38.914 35.959 36.801 37.394C35.9368 38.0521 34.9359 38.5077 33.872 38.727C33.7364 38.7318 33.6011 38.7091 33.4745 38.6603C33.3478 38.6115 33.2324 38.5376 33.135 38.443C32.973 38.282 32.543 37.852 32.555 35.006C32.567 32.176 32.979 31.764 33.134 31.606C33.228 31.5149 33.3394 31.4437 33.4616 31.3968C33.5838 31.3499 33.7142 31.3282 33.845 31.333ZM37.328 35.033C36.8624 34.5628 36.3412 34.1511 35.776 33.807C35.2739 33.4727 34.7428 33.1842 34.189 32.945C34.0953 33.6333 34.0509 34.3274 34.056 35.022C34.043 35.7309 34.0858 36.4398 34.184 37.142C34.7486 36.9043 35.2883 36.6112 35.795 36.267C36.3553 35.9191 36.8703 35.5029 37.328 35.028V35.033Z" fill="white"/>
</svg>
